<svg width="47" height="31" viewBox="0 0 47 31" fill="none" xmlns="http://www.w3.org/2000/svg">
<mask id="mask0_1_974" style="mask-type:luminance" maskUnits="userSpaceOnUse" x="0" y="0" width="47" height="31">
<path d="M0.578125 0.153992H46.6147V30.894H0.578125V0.153992Z" fill="white"/>
</mask>
<g mask="url(#mask0_1_974)">
<path d="M41.2989 9.24989H35.4337C35.4051 9.25109 35.3764 9.24869 35.3484 9.2433C35.3204 9.23791 35.2935 9.22952 35.2673 9.21814C35.2411 9.20676 35.2162 9.19298 35.193 9.17621C35.1698 9.15943 35.1491 9.14086 35.1302 9.1193C35.1113 9.09833 35.0955 9.07497 35.0821 9.05041C35.0681 9.02525 35.0577 8.99949 35.0498 8.97253C35.0419 8.94558 35.0376 8.91742 35.0358 8.88927C35.0346 8.86171 35.0358 8.83355 35.0407 8.806L35.8493 2.69392C35.8535 2.66637 35.8554 2.63881 35.8542 2.61065C35.8523 2.5825 35.8481 2.55494 35.8401 2.52799C35.8322 2.50103 35.8219 2.47527 35.8085 2.45071C35.7951 2.42615 35.7792 2.40279 35.7603 2.38182C35.7414 2.36025 35.7207 2.34168 35.6982 2.32491C35.675 2.30814 35.6506 2.29376 35.6244 2.28238C35.5988 2.271 35.5714 2.26261 35.5434 2.25722C35.516 2.25183 35.4873 2.24943 35.4587 2.25003H9.44231C9.3375 2.25242 9.23391 2.26441 9.13092 2.28477C9.02855 2.30514 8.92861 2.33449 8.83111 2.37223C8.73361 2.40997 8.64038 2.4555 8.5508 2.50942C8.46184 2.56333 8.37774 2.62443 8.29974 2.69272C8.22114 2.76102 8.14923 2.8353 8.08403 2.91617C8.01883 2.99644 7.96154 3.0821 7.91158 3.17256C7.86161 3.26302 7.81956 3.35707 7.78666 3.45471C7.75314 3.55236 7.72877 3.6524 7.71353 3.75424L7.55083 4.98228H17.5804C17.6743 4.97989 17.7681 4.98767 17.8601 5.00564C17.9527 5.02362 18.0423 5.05117 18.1282 5.08831C18.2148 5.12545 18.2958 5.17158 18.372 5.22669C18.4476 5.28121 18.517 5.34411 18.5786 5.41359C18.6407 5.48368 18.6943 5.55916 18.7388 5.64063C18.7839 5.7221 18.8193 5.80777 18.8449 5.89703C18.8711 5.98628 18.8863 6.07674 18.8918 6.16959C18.8973 6.26185 18.8918 6.3541 18.8766 6.44575C18.8613 6.5446 18.8376 6.64164 18.8053 6.73689C18.7723 6.83154 18.7315 6.92319 18.6828 7.01125C18.634 7.09931 18.578 7.18198 18.5146 7.26046C18.4512 7.33893 18.3811 7.41142 18.305 7.47791C18.2282 7.54381 18.1465 7.60311 18.06 7.65583C17.9729 7.70794 17.8821 7.75287 17.7876 7.78941C17.6925 7.82596 17.595 7.85471 17.4957 7.87448C17.3958 7.89425 17.2946 7.90563 17.1929 7.90863H3.54911C3.48086 7.90922 3.41383 7.91581 3.34741 7.92839C3.28038 7.94037 3.21517 7.95835 3.1518 7.98231C3.08843 8.00627 3.0281 8.03502 2.9696 8.06977C2.91171 8.10391 2.85687 8.14345 2.80568 8.18718C2.75449 8.23091 2.70818 8.27944 2.66552 8.33155C2.62348 8.38367 2.5857 8.43878 2.5534 8.49749C2.5211 8.55619 2.49429 8.6173 2.47296 8.6808C2.45164 8.7437 2.43579 8.80839 2.42665 8.87489V8.90244C2.4169 8.96175 2.41386 9.02165 2.41751 9.08216C2.42117 9.14206 2.43153 9.20137 2.44859 9.25948C2.46504 9.31698 2.4882 9.3727 2.51745 9.42601C2.54609 9.47873 2.58082 9.52785 2.62104 9.57398C2.66126 9.6195 2.70574 9.66024 2.7551 9.69618C2.80385 9.73212 2.85687 9.76268 2.91232 9.78724C2.96838 9.8118 3.02627 9.83037 3.0866 9.84295C3.14632 9.85493 3.20725 9.86092 3.26819 9.86032H16.943C17.0375 9.85792 17.1307 9.86511 17.2233 9.88308C17.3153 9.90106 17.4049 9.92861 17.4915 9.96575C17.5774 10.0029 17.6584 10.049 17.7346 10.1041C17.8102 10.1592 17.879 10.2215 17.9412 10.2916C18.0027 10.3611 18.0563 10.4372 18.1008 10.5187C18.1459 10.6001 18.1807 10.6858 18.2062 10.7745C18.2318 10.8637 18.2477 10.9548 18.2526 11.047C18.2574 11.1399 18.2526 11.2315 18.2367 11.3232C18.2215 11.4226 18.1977 11.5197 18.1654 11.6143C18.1331 11.7096 18.0923 11.8012 18.0435 11.8893C17.9948 11.9774 17.9387 12.0606 17.8754 12.1391C17.812 12.217 17.7419 12.2895 17.6657 12.3559C17.589 12.4224 17.5073 12.4817 17.4208 12.5339C17.3336 12.5866 17.2428 12.6309 17.1478 12.6675C17.0533 12.704 16.9558 12.7327 16.8559 12.7525C16.7559 12.7723 16.6548 12.7837 16.553 12.7861H6.41131C6.34489 12.7879 6.27908 12.7956 6.21327 12.8088C6.14806 12.822 6.08469 12.8406 6.02253 12.8645C5.96099 12.8885 5.90127 12.9179 5.8446 12.952C5.78793 12.9861 5.7343 13.0251 5.68433 13.0688C5.63437 13.1119 5.58866 13.1593 5.54723 13.2108C5.50579 13.2623 5.46923 13.3168 5.43754 13.3743C5.40585 13.4318 5.37904 13.4917 5.35771 13.5534C5.337 13.6157 5.32115 13.6792 5.3114 13.7439V13.7715C5.30165 13.8314 5.2986 13.8913 5.30226 13.9512C5.30592 14.0117 5.31628 14.0704 5.33334 14.1285C5.34979 14.1866 5.37295 14.2423 5.4022 14.2951C5.43145 14.3484 5.46557 14.3975 5.50579 14.443C5.54601 14.4886 5.59049 14.5293 5.63985 14.5658C5.6886 14.6018 5.74162 14.6317 5.79707 14.6569C5.85313 14.6814 5.91102 14.7 5.97135 14.712C6.03107 14.7246 6.092 14.7306 6.15294 14.7294H16.2977C16.3909 14.7282 16.4836 14.7366 16.575 14.7545C16.6664 14.7731 16.7547 14.8013 16.84 14.8384C16.9247 14.8755 17.0052 14.9217 17.0801 14.9768C17.1551 15.0313 17.2233 15.093 17.2843 15.1625C17.3452 15.232 17.3982 15.3069 17.4427 15.3877C17.4872 15.4686 17.5219 15.5531 17.5475 15.6411C17.5731 15.7292 17.5883 15.819 17.5938 15.9107C17.5999 16.0023 17.595 16.0934 17.5804 16.1845C17.5652 16.2833 17.5414 16.3803 17.5091 16.4756C17.4768 16.5708 17.436 16.6625 17.3879 16.7506C17.3391 16.8386 17.2831 16.9219 17.2191 17.0004C17.1557 17.0788 17.0856 17.1513 17.0094 17.2178C16.9333 17.2843 16.8516 17.3436 16.7645 17.3957C16.6773 17.4478 16.5865 17.4928 16.4915 17.5293C16.3964 17.5659 16.2989 17.594 16.199 17.6138C16.099 17.6336 15.9985 17.6449 15.8967 17.6473H5.06156C4.99514 17.6491 4.92872 17.6569 4.86352 17.6701C4.79831 17.6827 4.73494 17.7018 4.67278 17.7258C4.61063 17.7498 4.55152 17.7791 4.49485 17.8133C4.43818 17.8474 4.38455 17.8863 4.33458 17.9301C4.28462 17.9732 4.23891 18.0205 4.19748 18.0721C4.15604 18.123 4.11948 18.1775 4.08779 18.235C4.0561 18.2925 4.02929 18.3524 4.00796 18.4147C3.98724 18.477 3.9714 18.5405 3.96165 18.6052C3.9519 18.6645 3.94885 18.7244 3.95251 18.7849C3.95617 18.8448 3.96653 18.9041 3.98359 18.9622C4.00004 19.0197 4.0232 19.0755 4.05245 19.1288C4.08109 19.1815 4.11582 19.2312 4.15604 19.2767C4.19626 19.3223 4.24074 19.363 4.2901 19.3989C4.33885 19.4349 4.39186 19.4654 4.44732 19.49C4.50338 19.5152 4.56127 19.5331 4.6216 19.5457C4.68131 19.5583 4.74225 19.5637 4.80319 19.5631H5.61426L5.12859 23.2814C5.11275 23.3754 5.10726 23.4701 5.11275 23.5647C5.11823 23.66 5.13408 23.7534 5.16028 23.8451C5.18648 23.9367 5.22304 24.0248 5.26875 24.1086C5.31506 24.1925 5.3699 24.2704 5.43328 24.3423C5.49665 24.4142 5.56734 24.4783 5.64534 24.5346C5.72333 24.5909 5.80682 24.6388 5.89579 24.6771C5.98414 24.7155 6.07616 24.7436 6.17122 24.7622C6.26628 24.7802 6.36195 24.788 6.45884 24.7856H8.52155C8.14862 27.5849 10.1577 29.8541 13.0035 29.8541C15.8486 29.8541 18.4561 27.5849 18.829 24.7856H29.5996C29.2291 27.5849 31.2382 29.8541 34.0894 29.8541C36.9407 29.8541 39.5421 27.5849 39.9126 24.7856H42.7802C42.8436 24.7838 42.9039 24.7718 42.9624 24.7484C43.0209 24.7257 43.074 24.6933 43.1203 24.652C43.1672 24.6101 43.2056 24.5621 43.2348 24.5076C43.2641 24.4525 43.283 24.3944 43.2915 24.3333L44.3743 16.1647L41.2989 9.24989ZM16.7523 24.885C16.7157 25.0815 16.6633 25.2738 16.5945 25.4619C16.525 25.65 16.4409 25.8309 16.341 26.0052C16.241 26.1796 16.1271 26.3443 15.9991 26.4994C15.8718 26.6546 15.7316 26.799 15.5793 26.9314C15.4269 27.0631 15.2648 27.1824 15.0924 27.2884C14.9193 27.3938 14.7395 27.4849 14.5513 27.561C14.3636 27.637 14.1704 27.6969 13.9724 27.7413C13.7743 27.7856 13.5738 27.8138 13.3709 27.8251C13.2691 27.8311 13.1674 27.8311 13.0656 27.8263C12.9638 27.8209 12.8627 27.8096 12.7621 27.7928C12.6616 27.776 12.5623 27.7538 12.4642 27.7257C12.3667 27.6975 12.2704 27.6646 12.1765 27.6257C12.0827 27.5867 11.9913 27.543 11.9023 27.4939C11.8134 27.4447 11.7274 27.3908 11.6452 27.3321C11.5623 27.2734 11.4831 27.2105 11.4081 27.1428C11.3326 27.0751 11.2619 27.0032 11.1949 26.9278C11.1278 26.8523 11.0657 26.7726 11.0078 26.6899C10.9505 26.6073 10.8975 26.5216 10.85 26.4329C10.8024 26.3443 10.7598 26.2538 10.7226 26.1604C10.6854 26.0669 10.6537 25.9717 10.6281 25.8746C10.6019 25.7776 10.5818 25.6793 10.5672 25.5805C10.5526 25.4811 10.5434 25.3816 10.5404 25.281C10.538 25.1809 10.5404 25.0809 10.5495 24.9809C10.5581 24.8808 10.5727 24.782 10.5928 24.6837C10.6287 24.4872 10.6812 24.2955 10.75 24.108C10.8189 23.9205 10.903 23.7402 11.0023 23.5665C11.1016 23.3928 11.215 23.228 11.3423 23.0729C11.4697 22.9177 11.6086 22.774 11.7603 22.6416C11.9121 22.5092 12.0736 22.3906 12.2454 22.2845C12.4172 22.1785 12.5964 22.0875 12.7835 22.0114C12.9706 21.9347 13.1631 21.8742 13.3605 21.8293C13.558 21.7843 13.7579 21.7556 13.9602 21.7436C14.0619 21.737 14.1643 21.7364 14.2667 21.7412C14.3684 21.746 14.4702 21.7568 14.5708 21.773C14.6719 21.7891 14.7712 21.8113 14.87 21.8389C14.9681 21.8664 15.0643 21.8994 15.1588 21.9383C15.2532 21.9766 15.3453 22.0204 15.4348 22.0695C15.5244 22.118 15.6103 22.1719 15.6932 22.2306C15.7767 22.2893 15.8559 22.3522 15.9315 22.4199C16.007 22.4876 16.0789 22.5595 16.146 22.635C16.2136 22.7111 16.2758 22.7901 16.3343 22.8728C16.3922 22.9561 16.4452 23.0417 16.4933 23.1304C16.5415 23.2191 16.5841 23.3107 16.6213 23.4042C16.6584 23.4976 16.6901 23.5935 16.7163 23.6905C16.7425 23.7876 16.7633 23.8858 16.7779 23.9858C16.7925 24.0853 16.8017 24.1853 16.8047 24.286C16.8077 24.386 16.8047 24.4866 16.7962 24.5867C16.787 24.6873 16.773 24.7868 16.7523 24.885ZM37.8328 24.885C37.7968 25.0815 37.7444 25.2732 37.6756 25.4607C37.6067 25.6482 37.5226 25.8285 37.4233 26.0022C37.324 26.176 37.2106 26.3407 37.0833 26.4958C36.9565 26.651 36.817 26.7948 36.6652 26.9272C36.5135 27.0596 36.352 27.1782 36.1802 27.2842C36.0089 27.3902 35.8292 27.4813 35.6421 27.5574C35.455 27.634 35.2625 27.6945 35.065 27.7395C34.8676 27.7844 34.6677 27.8126 34.4654 27.8251C34.3636 27.8311 34.2619 27.8311 34.1601 27.8263C34.0584 27.8209 33.9572 27.8096 33.8566 27.7928C33.7561 27.776 33.6568 27.7538 33.5593 27.7257C33.4612 27.6975 33.3655 27.6646 33.271 27.6257C33.1772 27.5867 33.0858 27.543 32.9968 27.4939C32.9079 27.4447 32.8219 27.3908 32.7397 27.3321C32.6568 27.2734 32.5782 27.2105 32.5026 27.1428C32.4277 27.0751 32.3564 27.0032 32.2894 26.9278C32.2223 26.8523 32.1602 26.7726 32.1029 26.6899C32.045 26.6073 31.992 26.5216 31.9445 26.4329C31.8969 26.3443 31.8543 26.2538 31.8171 26.1604C31.7799 26.0669 31.7488 25.9717 31.7226 25.8746C31.6964 25.7776 31.6763 25.6793 31.6617 25.5805C31.6471 25.4811 31.6385 25.3816 31.6355 25.281C31.6325 25.1809 31.6355 25.0809 31.644 24.9809C31.6526 24.8808 31.6672 24.782 31.6873 24.6837C31.7239 24.4872 31.7763 24.2955 31.8451 24.108C31.9134 23.9205 31.9975 23.7402 32.0968 23.5665C32.1961 23.3928 32.3095 23.228 32.4368 23.0729C32.5642 22.9177 32.7037 22.774 32.8548 22.6416C33.0066 22.5092 33.1681 22.3906 33.3399 22.2845C33.5117 22.1785 33.6909 22.0875 33.8786 22.0114C34.0657 21.9347 34.2576 21.8742 34.4551 21.8293C34.6525 21.7843 34.8524 21.7556 35.0547 21.7436C35.1564 21.7376 35.2582 21.737 35.36 21.7424C35.4617 21.7478 35.5629 21.7592 35.6634 21.776C35.764 21.7927 35.8633 21.8149 35.9614 21.8431C36.0589 21.8706 36.1552 21.9042 36.249 21.9431C36.3429 21.982 36.4349 22.0258 36.5232 22.0749C36.6122 22.124 36.6981 22.1779 36.781 22.2366C36.8633 22.2953 36.9425 22.3582 37.0174 22.4259C37.093 22.4936 37.1637 22.5655 37.2307 22.641C37.2978 22.7165 37.3599 22.7961 37.4178 22.8788C37.4757 22.9615 37.5281 23.0471 37.5756 23.1352C37.6238 23.2239 37.6658 23.3149 37.703 23.4084C37.7402 23.5018 37.7718 23.5971 37.798 23.6941C37.8236 23.7912 37.8444 23.8894 37.8584 23.9882C37.873 24.0877 37.8821 24.1871 37.8852 24.2878C37.8882 24.3878 37.8852 24.4878 37.8767 24.5879C37.8675 24.6879 37.8535 24.7868 37.8328 24.885ZM34.0925 16.1731L34.6787 11.7563H39.9516L41.9777 16.1928L34.0925 16.1731Z" fill="#3A2215"/>
</g>
</svg>
