<svg width="48" height="23" viewBox="0 0 48 23" fill="none" xmlns="http://www.w3.org/2000/svg">
<mask id="mask0_1_1002" style="mask-type:luminance" maskUnits="userSpaceOnUse" x="0" y="0" width="48" height="23">
<path d="M0.179688 0.504761H47.7939V22.1987H0.179688V0.504761Z" fill="white"/>
</mask>
<g mask="url(#mask0_1_1002)">
<path d="M45.4248 9.89362C44.9939 10.2478 45.0568 10.5354 44.9377 10.8548C44.8718 11.0308 44.7978 11.2604 44.475 11.5379C44.475 11.5379 40.3154 15.7506 37.5298 14.8488C33.402 13.5117 35.6673 8.31746 35.6673 8.31746L36.0929 7.40624C36.3046 6.95208 36.9368 6.7652 37.193 6.61237C37.6593 6.33495 37.8133 6.42984 38.0894 5.83805C38.5373 4.88048 38.1183 3.18915 37.9836 2.83422C37.5868 3.03704 35.9463 3.92363 35.4992 4.88193C35.2231 5.47371 35.5673 5.81777 35.6954 6.26541C35.765 6.51169 35.8745 6.82895 35.6628 7.28311L35.2379 8.19432C35.2379 8.19432 32.6965 13.185 28.9056 13.2183C24.2745 13.2589 24.2575 5.88876 24.2575 5.88876C24.2575 5.34695 24.5439 5.0449 24.7497 4.80732C25.1236 4.37416 25.6847 4.1163 25.6847 3.40935C25.6847 2.29532 24.3937 0.914004 24.0176 0.535175V0.527931C24.0102 0.520688 24.0006 0.510547 23.9939 0.504028C23.9932 0.505477 23.9917 0.506926 23.9902 0.50765C23.9895 0.506926 23.988 0.505477 23.9873 0.504753C23.9858 0.505477 23.985 0.506926 23.9836 0.50765C23.9828 0.506926 23.9813 0.505477 23.9806 0.504028C23.9739 0.510547 23.9643 0.520688 23.9569 0.527931V0.535175C23.5809 0.914004 22.2898 2.29532 22.2898 3.40935C22.2898 4.1163 22.8509 4.37416 23.2248 4.80732C23.4298 5.0449 23.7171 5.34695 23.7171 5.88876C23.7171 5.88876 23.7 13.2589 19.0682 13.2183C15.278 13.185 12.7366 8.19432 12.7366 8.19432L12.3117 7.28311C12.1 6.82895 12.2088 6.51169 12.2791 6.26541C12.4072 5.81777 12.7514 5.47371 12.4753 4.88193C12.0282 3.92363 10.387 3.03704 9.99096 2.83422C9.85549 3.18915 9.43724 4.88048 9.88437 5.83805C10.1605 6.42984 10.3152 6.33495 10.7808 6.61237C11.037 6.7652 11.6699 6.95208 11.8816 7.40624L12.3073 8.31746C12.3073 8.31746 14.5725 13.5117 10.4447 14.8488C7.65911 15.7506 3.49953 11.5379 3.49953 11.5379C3.17677 11.2604 3.10275 11.0308 3.03686 10.8548C2.91768 10.5354 2.9806 10.2478 2.54976 9.89362C1.80653 9.28373 0.471083 8.92011 0.193481 8.85637C0.268249 9.11496 0.841959 10.3608 1.52301 10.9454C1.94348 11.3061 2.33879 11.1851 2.69264 11.3973C6.64346 13.7724 6.95733 22.056 6.95733 22.056H6.99139C7.54067 20.7913 14.9263 19.5078 23.9621 19.5078C23.9658 19.5078 24.0087 19.5078 24.0124 19.5078C33.0482 19.5078 40.4331 20.7913 40.9824 22.056H41.0172C41.0172 22.056 41.3311 13.7724 45.2819 11.3973C45.635 11.1851 46.0303 11.3061 46.4508 10.9454C47.1318 10.3608 47.7055 9.11496 47.781 8.85637C47.5034 8.92011 46.168 9.28373 45.4248 9.89362Z" fill="#3A2215"/>
</g>
</svg>
