<svg width="61" height="61" viewBox="0 0 61 61" fill="none" xmlns="http://www.w3.org/2000/svg">
<g filter="url(#filter0_d_1_971)">
<g clip-path="url(#clip0_1_971)">
<rect x="4" width="53" height="53" rx="26.5" fill="white"/>
<rect width="64.0417" height="43.0625" transform="translate(-1.52148 5.52081)" fill="white"/>
<mask id="mask0_1_971" style="mask-type:luminance" maskUnits="userSpaceOnUse" x="6" y="11" width="47" height="31">
<path d="M6.57812 11.154H52.6147V41.894H6.57812V11.154Z" fill="white"/>
</mask>
<g mask="url(#mask0_1_971)">
<path d="M47.2989 20.2499H41.4337C41.4051 20.2511 41.3764 20.2487 41.3484 20.2433C41.3204 20.2379 41.2935 20.2295 41.2673 20.2181C41.2411 20.2068 41.2162 20.193 41.193 20.1762C41.1698 20.1594 41.1491 20.1409 41.1302 20.1193C41.1113 20.0983 41.0955 20.075 41.0821 20.0504C41.0681 20.0252 41.0577 19.9995 41.0498 19.9725C41.0419 19.9456 41.0376 19.9174 41.0358 19.8893C41.0346 19.8617 41.0358 19.8336 41.0407 19.806L41.8493 13.6939C41.8535 13.6664 41.8554 13.6388 41.8542 13.6107C41.8523 13.5825 41.8481 13.5549 41.8401 13.528C41.8322 13.501 41.8219 13.4753 41.8085 13.4507C41.7951 13.4261 41.7792 13.4028 41.7603 13.3818C41.7414 13.3603 41.7207 13.3417 41.6982 13.3249C41.675 13.3081 41.6506 13.2938 41.6244 13.2824C41.5988 13.271 41.5714 13.2626 41.5434 13.2572C41.516 13.2518 41.4873 13.2494 41.4587 13.25H15.4423C15.3375 13.2524 15.2339 13.2644 15.1309 13.2848C15.0285 13.3051 14.9286 13.3345 14.8311 13.3722C14.7336 13.41 14.6404 13.4555 14.5508 13.5094C14.4618 13.5633 14.3777 13.6244 14.2997 13.6927C14.2211 13.761 14.1492 13.8353 14.084 13.9162C14.0188 13.9964 13.9615 14.0821 13.9116 14.1726C13.8616 14.263 13.8196 14.3571 13.7867 14.4547C13.7531 14.5524 13.7288 14.6524 13.7135 14.7542L13.5508 15.9823H23.5804C23.6743 15.9799 23.7681 15.9877 23.8601 16.0056C23.9527 16.0236 24.0423 16.0512 24.1282 16.0883C24.2148 16.1255 24.2958 16.1716 24.372 16.2267C24.4476 16.2812 24.517 16.3441 24.5786 16.4136C24.6407 16.4837 24.6943 16.5592 24.7388 16.6406C24.7839 16.7221 24.8193 16.8078 24.8449 16.897C24.8711 16.9863 24.8863 17.0767 24.8918 17.1696C24.8973 17.2618 24.8918 17.3541 24.8766 17.4458C24.8613 17.5446 24.8376 17.6416 24.8053 17.7369C24.7723 17.8315 24.7315 17.9232 24.6828 18.0113C24.634 18.0993 24.578 18.182 24.5146 18.2605C24.4512 18.3389 24.3811 18.4114 24.305 18.4779C24.2282 18.5438 24.1465 18.6031 24.06 18.6558C23.9729 18.7079 23.8821 18.7529 23.7876 18.7894C23.6925 18.826 23.595 18.8547 23.4957 18.8745C23.3958 18.8942 23.2946 18.9056 23.1929 18.9086H9.54911C9.48086 18.9092 9.41383 18.9158 9.34741 18.9284C9.28038 18.9404 9.21517 18.9583 9.1518 18.9823C9.08843 19.0063 9.0281 19.035 8.9696 19.0698C8.91171 19.1039 8.85687 19.1435 8.80568 19.1872C8.75449 19.2309 8.70818 19.2794 8.66552 19.3316C8.62348 19.3837 8.5857 19.4388 8.5534 19.4975C8.5211 19.5562 8.49429 19.6173 8.47296 19.6808C8.45164 19.7437 8.43579 19.8084 8.42665 19.8749V19.9024C8.4169 19.9617 8.41386 20.0217 8.41751 20.0822C8.42117 20.1421 8.43153 20.2014 8.44859 20.2595C8.46504 20.317 8.4882 20.3727 8.51745 20.426C8.54609 20.4787 8.58082 20.5278 8.62104 20.574C8.66126 20.6195 8.70574 20.6602 8.7551 20.6962C8.80385 20.7321 8.85687 20.7627 8.91232 20.7872C8.96838 20.8118 9.02627 20.8304 9.0866 20.8429C9.14632 20.8549 9.20725 20.8609 9.26819 20.8603H22.943C23.0375 20.8579 23.1307 20.8651 23.2233 20.8831C23.3153 20.9011 23.4049 20.9286 23.4915 20.9658C23.5774 21.0029 23.6584 21.049 23.7346 21.1041C23.8102 21.1592 23.879 21.2215 23.9412 21.2916C24.0027 21.3611 24.0563 21.4372 24.1008 21.5187C24.1459 21.6001 24.1807 21.6858 24.2062 21.7745C24.2318 21.8637 24.2477 21.9548 24.2526 22.047C24.2574 22.1399 24.2526 22.2315 24.2367 22.3232C24.2215 22.4226 24.1977 22.5197 24.1654 22.6143C24.1331 22.7096 24.0923 22.8012 24.0435 22.8893C23.9948 22.9774 23.9387 23.0606 23.8754 23.1391C23.812 23.217 23.7419 23.2895 23.6657 23.3559C23.589 23.4224 23.5073 23.4817 23.4208 23.5339C23.3336 23.5866 23.2428 23.6309 23.1478 23.6675C23.0533 23.704 22.9558 23.7327 22.8559 23.7525C22.7559 23.7723 22.6548 23.7837 22.553 23.7861H12.4113C12.3449 23.7879 12.2791 23.7956 12.2133 23.8088C12.1481 23.822 12.0847 23.8406 12.0225 23.8645C11.961 23.8885 11.9013 23.9179 11.8446 23.952C11.7879 23.9861 11.7343 24.0251 11.6843 24.0688C11.6344 24.1119 11.5887 24.1593 11.5472 24.2108C11.5058 24.2623 11.4692 24.3168 11.4375 24.3743C11.4059 24.4318 11.379 24.4917 11.3577 24.5534C11.337 24.6157 11.3212 24.6792 11.3114 24.7439V24.7715C11.3017 24.8314 11.2986 24.8913 11.3023 24.9512C11.3059 25.0117 11.3163 25.0704 11.3333 25.1285C11.3498 25.1866 11.3729 25.2423 11.4022 25.2951C11.4314 25.3484 11.4656 25.3975 11.5058 25.443C11.546 25.4886 11.5905 25.5293 11.6399 25.5658C11.6886 25.6018 11.7416 25.6317 11.7971 25.6569C11.8531 25.6814 11.911 25.7 11.9713 25.712C12.0311 25.7246 12.092 25.7306 12.1529 25.7294H22.2977C22.3909 25.7282 22.4836 25.7366 22.575 25.7545C22.6664 25.7731 22.7547 25.8013 22.84 25.8384C22.9247 25.8755 23.0052 25.9217 23.0801 25.9768C23.1551 26.0313 23.2233 26.093 23.2843 26.1625C23.3452 26.232 23.3982 26.3069 23.4427 26.3877C23.4872 26.4686 23.5219 26.5531 23.5475 26.6411C23.5731 26.7292 23.5883 26.819 23.5938 26.9107C23.5999 27.0023 23.595 27.0934 23.5804 27.1845C23.5652 27.2833 23.5414 27.3803 23.5091 27.4756C23.4768 27.5708 23.436 27.6625 23.3879 27.7506C23.3391 27.8386 23.2831 27.9219 23.2191 28.0004C23.1557 28.0788 23.0856 28.1513 23.0094 28.2178C22.9333 28.2843 22.8516 28.3436 22.7645 28.3957C22.6773 28.4478 22.5865 28.4928 22.4915 28.5293C22.3964 28.5659 22.2989 28.594 22.199 28.6138C22.099 28.6336 21.9985 28.6449 21.8967 28.6473H11.0616C10.9951 28.6491 10.9287 28.6569 10.8635 28.6701C10.7983 28.6827 10.7349 28.7018 10.6728 28.7258C10.6106 28.7498 10.5515 28.7791 10.4948 28.8133C10.4382 28.8474 10.3846 28.8863 10.3346 28.9301C10.2846 28.9732 10.2389 29.0205 10.1975 29.0721C10.156 29.123 10.1195 29.1775 10.0878 29.235C10.0561 29.2925 10.0293 29.3524 10.008 29.4147C9.98724 29.477 9.9714 29.5405 9.96165 29.6052C9.9519 29.6645 9.94885 29.7244 9.95251 29.7849C9.95617 29.8448 9.96653 29.9041 9.98359 29.9622C10 30.0197 10.0232 30.0755 10.0524 30.1288C10.0811 30.1815 10.1158 30.2312 10.156 30.2767C10.1963 30.3223 10.2407 30.363 10.2901 30.3989C10.3388 30.4349 10.3919 30.4654 10.4473 30.49C10.5034 30.5152 10.5613 30.5331 10.6216 30.5457C10.6813 30.5583 10.7423 30.5637 10.8032 30.5631H11.6143L11.1286 34.2814C11.1127 34.3754 11.1073 34.4701 11.1127 34.5647C11.1182 34.66 11.1341 34.7534 11.1603 34.8451C11.1865 34.9367 11.223 35.0248 11.2687 35.1086C11.3151 35.1925 11.3699 35.2704 11.4333 35.3423C11.4966 35.4142 11.5673 35.4783 11.6453 35.5346C11.7233 35.5909 11.8068 35.6388 11.8958 35.6771C11.9841 35.7155 12.0762 35.7436 12.1712 35.7622C12.2663 35.7802 12.362 35.788 12.4588 35.7856H14.5216C14.1486 38.5849 16.1577 40.8541 19.0035 40.8541C21.8486 40.8541 24.4561 38.5849 24.829 35.7856H35.5996C35.2291 38.5849 37.2382 40.8541 40.0894 40.8541C42.9407 40.8541 45.5421 38.5849 45.9126 35.7856H48.7802C48.8436 35.7838 48.9039 35.7718 48.9624 35.7484C49.0209 35.7257 49.074 35.6933 49.1203 35.652C49.1672 35.6101 49.2056 35.5621 49.2348 35.5076C49.2641 35.4525 49.283 35.3944 49.2915 35.3333L50.3743 27.1647L47.2989 20.2499ZM22.7523 35.885C22.7157 36.0815 22.6633 36.2738 22.5945 36.4619C22.525 36.65 22.4409 36.8309 22.341 37.0052C22.241 37.1796 22.1271 37.3443 21.9991 37.4994C21.8718 37.6546 21.7316 37.799 21.5793 37.9314C21.4269 38.0631 21.2648 38.1824 21.0924 38.2884C20.9193 38.3938 20.7395 38.4849 20.5513 38.561C20.3636 38.637 20.1704 38.6969 19.9724 38.7413C19.7743 38.7856 19.5738 38.8138 19.3709 38.8251C19.2691 38.8311 19.1674 38.8311 19.0656 38.8263C18.9638 38.8209 18.8627 38.8096 18.7621 38.7928C18.6616 38.776 18.5623 38.7538 18.4642 38.7257C18.3667 38.6975 18.2704 38.6646 18.1765 38.6257C18.0827 38.5867 17.9913 38.543 17.9023 38.4939C17.8134 38.4447 17.7274 38.3908 17.6452 38.3321C17.5623 38.2734 17.4831 38.2105 17.4081 38.1428C17.3326 38.0751 17.2619 38.0032 17.1949 37.9278C17.1278 37.8523 17.0657 37.7726 17.0078 37.6899C16.9505 37.6073 16.8975 37.5216 16.85 37.4329C16.8024 37.3443 16.7598 37.2538 16.7226 37.1604C16.6854 37.0669 16.6537 36.9717 16.6281 36.8746C16.6019 36.7776 16.5818 36.6793 16.5672 36.5805C16.5526 36.4811 16.5434 36.3816 16.5404 36.281C16.538 36.1809 16.5404 36.0809 16.5495 35.9809C16.5581 35.8808 16.5727 35.782 16.5928 35.6837C16.6287 35.4872 16.6812 35.2955 16.75 35.108C16.8189 34.9205 16.903 34.7402 17.0023 34.5665C17.1016 34.3928 17.215 34.228 17.3423 34.0729C17.4697 33.9177 17.6086 33.774 17.7603 33.6416C17.9121 33.5092 18.0736 33.3906 18.2454 33.2845C18.4172 33.1785 18.5964 33.0875 18.7835 33.0114C18.9706 32.9347 19.1631 32.8742 19.3605 32.8293C19.558 32.7843 19.7579 32.7556 19.9602 32.7436C20.0619 32.737 20.1643 32.7364 20.2667 32.7412C20.3684 32.746 20.4702 32.7568 20.5708 32.773C20.6719 32.7891 20.7712 32.8113 20.87 32.8389C20.9681 32.8664 21.0643 32.8994 21.1588 32.9383C21.2532 32.9766 21.3453 33.0204 21.4348 33.0695C21.5244 33.118 21.6103 33.1719 21.6932 33.2306C21.7767 33.2893 21.8559 33.3522 21.9315 33.4199C22.007 33.4876 22.0789 33.5595 22.146 33.635C22.2136 33.7111 22.2758 33.7901 22.3343 33.8728C22.3922 33.9561 22.4452 34.0417 22.4933 34.1304C22.5415 34.2191 22.5841 34.3107 22.6213 34.4042C22.6584 34.4976 22.6901 34.5935 22.7163 34.6905C22.7425 34.7876 22.7633 34.8858 22.7779 34.9858C22.7925 35.0853 22.8017 35.1853 22.8047 35.286C22.8077 35.386 22.8047 35.4866 22.7962 35.5867C22.787 35.6873 22.773 35.7868 22.7523 35.885ZM43.8328 35.885C43.7968 36.0815 43.7444 36.2732 43.6756 36.4607C43.6067 36.6482 43.5226 36.8285 43.4233 37.0022C43.324 37.176 43.2106 37.3407 43.0833 37.4958C42.9565 37.651 42.817 37.7948 42.6652 37.9272C42.5135 38.0596 42.352 38.1782 42.1802 38.2842C42.0089 38.3902 41.8292 38.4813 41.6421 38.5574C41.455 38.634 41.2625 38.6945 41.065 38.7395C40.8676 38.7844 40.6677 38.8126 40.4654 38.8251C40.3636 38.8311 40.2619 38.8311 40.1601 38.8263C40.0584 38.8209 39.9572 38.8096 39.8566 38.7928C39.7561 38.776 39.6568 38.7538 39.5593 38.7257C39.4612 38.6975 39.3655 38.6646 39.271 38.6257C39.1772 38.5867 39.0858 38.543 38.9968 38.4939C38.9079 38.4447 38.8219 38.3908 38.7397 38.3321C38.6568 38.2734 38.5782 38.2105 38.5026 38.1428C38.4277 38.0751 38.3564 38.0032 38.2894 37.9278C38.2223 37.8523 38.1602 37.7726 38.1029 37.6899C38.045 37.6073 37.992 37.5216 37.9445 37.4329C37.8969 37.3443 37.8543 37.2538 37.8171 37.1604C37.7799 37.0669 37.7488 36.9717 37.7226 36.8746C37.6964 36.7776 37.6763 36.6793 37.6617 36.5805C37.6471 36.4811 37.6385 36.3816 37.6355 36.281C37.6325 36.1809 37.6355 36.0809 37.644 35.9809C37.6526 35.8808 37.6672 35.782 37.6873 35.6837C37.7239 35.4872 37.7763 35.2955 37.8451 35.108C37.9134 34.9205 37.9975 34.7402 38.0968 34.5665C38.1961 34.3928 38.3095 34.228 38.4368 34.0729C38.5642 33.9177 38.7037 33.774 38.8548 33.6416C39.0066 33.5092 39.1681 33.3906 39.3399 33.2845C39.5117 33.1785 39.6909 33.0875 39.8786 33.0114C40.0657 32.9347 40.2576 32.8742 40.4551 32.8293C40.6525 32.7843 40.8524 32.7556 41.0547 32.7436C41.1564 32.7376 41.2582 32.737 41.36 32.7424C41.4617 32.7478 41.5629 32.7592 41.6634 32.776C41.764 32.7927 41.8633 32.8149 41.9614 32.8431C42.0589 32.8706 42.1552 32.9042 42.249 32.9431C42.3429 32.982 42.4349 33.0258 42.5232 33.0749C42.6122 33.124 42.6981 33.1779 42.781 33.2366C42.8633 33.2953 42.9425 33.3582 43.0174 33.4259C43.093 33.4936 43.1637 33.5655 43.2307 33.641C43.2978 33.7165 43.3599 33.7961 43.4178 33.8788C43.4757 33.9615 43.5281 34.0471 43.5756 34.1352C43.6238 34.2239 43.6658 34.3149 43.703 34.4084C43.7402 34.5018 43.7718 34.5971 43.798 34.6941C43.8236 34.7912 43.8444 34.8894 43.8584 34.9882C43.873 35.0877 43.8821 35.1871 43.8852 35.2878C43.8882 35.3878 43.8852 35.4878 43.8767 35.5879C43.8675 35.6879 43.8535 35.7868 43.8328 35.885ZM40.0925 27.1731L40.6787 22.7563H45.9516L47.9777 27.1928L40.0925 27.1731Z" fill="#3A2215"/>
</g>
</g>
</g>
<defs>
<filter id="filter0_d_1_971" x="0" y="0" width="61" height="61" filterUnits="userSpaceOnUse" color-interpolation-filters="sRGB">
<feFlood flood-opacity="0" result="BackgroundImageFix"/>
<feColorMatrix in="SourceAlpha" type="matrix" values="0 0 0 0 0 0 0 0 0 0 0 0 0 0 0 0 0 0 127 0" result="hardAlpha"/>
<feOffset dy="4"/>
<feGaussianBlur stdDeviation="2"/>
<feComposite in2="hardAlpha" operator="out"/>
<feColorMatrix type="matrix" values="0 0 0 0 0 0 0 0 0 0 0 0 0 0 0 0 0 0 0.25 0"/>
<feBlend mode="normal" in2="BackgroundImageFix" result="effect1_dropShadow_1_971"/>
<feBlend mode="normal" in="SourceGraphic" in2="effect1_dropShadow_1_971" result="shape"/>
</filter>
<clipPath id="clip0_1_971">
<rect x="4" width="53" height="53" rx="26.5" fill="white"/>
</clipPath>
</defs>
</svg>
